<svg id="Layer_3" enable-background="new 0 0 64 64" height="512" viewBox="0 0 64 64" width="512" xmlns="http://www.w3.org/2000/svg"><g><path d="m45.766 24.861 2.234 8.139 1.886 6.288c.739 2.461 1.114 5.018 1.114 7.588 0 4.432-2.283 8.551-6.041 10.9l-1.959 1.224h-4.197c-1.175 0-2.325-.348-3.303-1-.978-.652-2.127-1-3.303-1h-.394c-1.176 0-2.325.348-3.303 1-.978.652-2.127 1-3.303 1h-4.197l-1.959-1.224c-3.758-2.349-6.041-6.468-6.041-10.9 0-2.57.375-5.127 1.114-7.588l1.886-6.288 2.265-7.797" fill="#f2f2f2"/><path d="m48.739 35.463-.739-2.463-2.234-8.139-27.501.342-2.265 7.797-.55 1.835c4.17 4.089 10.23 6.665 16.98 6.665 6.396 0 12.172-2.315 16.309-6.037z" fill="#ccc"/><path d="m35 29v1l.051.127c1.177 2.943 4.027 4.873 7.197 4.873 4.281 0 7.752-3.471 7.752-7.752 0-2.147-.395-4.276-1.166-6.28-1.264-3.286-3.285-6.168-5.839-8.46l.992-1.488c1.312-1.969 2.013-4.283 2.013-6.65v-2.37l-.919.263c-3.415.976-6.189 3.414-7.629 6.615-.859-.392-1.745-.737-2.66-1.019l-2.792-.859-2.792.859c-.915.281-1.801.627-2.66 1.019-1.44-3.202-4.214-5.64-7.629-6.615l-.919-.263v2.37c0 2.367.701 4.682 2.014 6.651l.992 1.488c-2.555 2.292-4.576 5.174-5.839 8.46-.772 2.003-1.167 4.132-1.167 6.279 0 4.281 3.471 7.752 7.752 7.752 3.17 0 6.02-1.93 7.197-4.873l.051-.127v-1" fill="#e39854"/><path d="m42.888 30.762c.45-1.548-.207-3.205-1.596-4.024l-4.732-2.792c-.599-.354-1.081-.877-1.384-1.503-1.285-2.657-5.069-2.657-6.354 0-.303.627-.784 1.149-1.384 1.503l-4.732 2.792c-1.389.819-2.046 2.476-1.596 4.024l1.219 4.194c2.932-.22 5.514-2.068 6.618-4.829l.053-.127 3-.382 3 .382.051.127c1.104 2.761 3.686 4.609 6.618 4.829z" fill="#ebf7fe"/><path d="m37 24v3c0 1.103-.897 2-2 2s-2-.897-2-2v-1h-2v1c0 1.103-.897 2-2 2s-2-.897-2-2v-3h-2v3c0 2.206 1.794 4 4 4 1.201 0 2.266-.542 3-1.382.734.84 1.799 1.382 3 1.382 2.206 0 4-1.794 4-4v-3z" fill="#4d5d7a"/><g><path d="m37 20c-1.103 0-2-.897-2-2s.897-2 2-2 2 .897 2 2-.897 2-2 2zm0-2.001v.001z" fill="#4d5d7a"/></g><g><path d="m27 20c-1.103 0-2-.897-2-2s.897-2 2-2 2 .897 2 2-.897 2-2 2zm0-2.001v.001z" fill="#4d5d7a"/></g><path d="m17 39v1c0 1.657 1.343 3 3 3h3c1.657 0 3 1.343 3 3 0 1.105.895 2 2 2h2c1.105 0 2-.895 2-2v-4c0-1.657-1.343-3-3-3h-4" fill="#e39854"/><g><path d="m28 44h2v4h-2z" fill="#c16b3f"/></g><path d="m47 39v1c0 1.657-1.343 3-3 3h-3c-1.657 0-3 1.343-3 3 0 1.105-.895 2-2 2h-2c-1.105 0-2-.895-2-2v-4c0-1.657 1.343-3 3-3h4" fill="#e39854"/><g><path d="m34 44h2v4h-2z" fill="#c16b3f"/></g><path d="m26 57h-2c-1.105 0-2 .895-2 2v3h6v-3c0-1.105-.895-2-2-2z" fill="#e39854"/><g><path d="m24 59h2v3h-2z" fill="#c16b3f"/></g><path d="m40 57h-2c-1.105 0-2 .895-2 2v3h6v-3c0-1.105-.895-2-2-2z" fill="#e39854"/><g><path d="m38 59h2v3h-2z" fill="#c16b3f"/></g><g><path d="m31 22h2v2h-2z" fill="#4d5d7a"/></g></g></svg>