<svg height="511.11724pt" viewBox="0 0 511.11724 511.11724" width="511.11724pt" xmlns="http://www.w3.org/2000/svg"><path d="m511.117188 255.558594c0 3-.089844 5.914062-.265626 8.828125-.253906 10.109375-1.136718 20.191406-2.648437 30.191406-.96875 5.824219-2.03125 11.5625-3.351563 17.300781-2.519531 11.308594-5.824218 22.429688-9.890624 33.28125-2.027344 5.558594-4.324219 10.945313-6.796876 16.328125-4.140624 9.203125-8.859374 18.136719-14.121093 26.75-3.089844 5.03125-6.359375 9.972657-9.710938 14.742188-6.710937 9.460937-14.054687 18.457031-21.980469 26.921875-3.972656 4.328125-8.121093 8.476562-12.449218 12.449218-7.359375 6.917969-15.140625 13.375-23.304688 19.332032-4.675781 3.53125-9.53125 6.796875-14.566406 9.972656-9.769531 6.226562-19.976562 11.746094-30.542969 16.507812-5.382812 2.472657-10.769531 4.769532-16.328125 6.796876-9.453125 3.566406-19.125 6.515624-28.957031 8.828124-5.648437 1.503907-11.476563 2.648438-17.300781 3.621094-11.402344 2.003906-22.941406 3.152344-34.515625 3.441406-2.914063.175782-5.828125.265626-8.828125.265626s-5.914063-.089844-8.828125-.265626c-10.109375-.253906-20.191407-1.136718-30.191407-2.648437-5.824218-.96875-11.5625-2.03125-17.300781-3.351563-11.308593-2.519531-22.429687-5.824218-33.28125-9.890624-5.558593-2.027344-10.945312-4.324219-16.328125-6.796876-9.203125-4.140624-18.136718-8.859374-26.75-14.121093-5.03125-3.089844-9.972656-6.359375-14.742187-9.710938-9.460938-6.710937-18.457031-14.054687-26.921875-21.980469-4.328125-3.972656-8.476563-8.121093-12.449219-12.449218-6.917969-7.359375-13.375-15.140625-19.332031-23.304688-3.53125-4.675781-6.796875-9.53125-9.972656-14.566406-6.226563-9.769531-11.746094-19.976562-16.507813-30.542969-2.472656-5.382812-4.769531-10.769531-6.796875-16.328125-3.566406-9.453125-6.515625-19.125-8.828125-28.957031-1.5-5.648437-2.648437-11.476563-3.621094-17.300781-2.003906-11.402344-3.152343-22.941406-3.441406-34.515625-.1757812-2.914063-.265625-5.828125-.265625-8.828125s.0898438-5.914063.265625-8.828125c.253906-10.109375 1.136719-20.191407 2.648437-30.191407.96875-5.824218 2.03125-11.5625 3.355469-17.300781 2.515625-11.308593 5.820313-22.429687 9.886719-33.28125 2.027344-5.558593 4.324219-10.945312 6.796875-16.328125 4.140625-9.203125 8.859375-18.136718 14.121094-26.75 3.089843-5.03125 6.359375-9.972656 9.710937-14.742187 6.710938-9.460938 14.054688-18.457031 21.980469-26.921875 3.972656-4.328125 8.121094-8.476563 12.449219-12.449219 7.359375-6.917969 15.140625-13.375 23.304687-19.332031 4.675781-3.53125 9.53125-6.796875 14.566407-9.972656 9.769531-6.226563 19.976562-11.746094 30.542968-16.507813 5.382813-2.472656 10.769532-4.769531 16.328125-6.796875 9.453125-3.566406 19.125-6.515625 28.957031-8.828125 5.648438-1.5 11.476563-2.648437 17.300782-3.621094 11.402344-2.003906 22.941406-3.152343 34.515625-3.441406 2.914062-.1757812 5.828125-.265625 8.828125-.265625s5.914062.0898438 8.828125.265625c10.109375.253906 20.191406 1.136719 30.191406 2.648437 5.824219.96875 11.5625 2.03125 17.300781 3.355469 11.308594 2.515625 22.429688 5.820313 33.28125 9.886719 5.558594 2.027344 10.945313 4.324219 16.328125 6.796875 9.203125 4.140625 18.136719 8.859375 26.75 14.121094 5.03125 3.089843 9.972657 6.359375 14.742188 9.710937 9.460937 6.710938 18.457031 14.054688 26.921875 21.980469 4.328125 3.972656 8.476562 8.121094 12.449218 12.449219 6.917969 7.359375 13.375 15.140625 19.332032 23.304687 3.53125 4.675781 6.796875 9.53125 9.972656 14.566407 6.226562 9.769531 11.746094 19.976562 16.507812 30.542968 2.472657 5.382813 4.769532 10.769532 6.796876 16.328125 3.566406 9.453125 6.515624 19.125 8.828124 28.957031 1.503907 5.648438 2.648438 11.476563 3.621094 17.300782 2.003906 11.402344 3.152344 22.941406 3.441406 34.515625.175782 2.914062.265626 5.828125.265626 8.828125zm0 0" fill="#e4c05c"/><g fill="#b19046"><path d="m264.386719.265625v78.742187c0 4.875-3.953125 8.828126-8.828125 8.828126s-8.828125-3.953126-8.828125-8.828126v-78.742187c2.914062-.1757812 5.828125-.265625 8.828125-.265625s5.914062.0898438 8.828125.265625zm0 0"/><path d="m264.386719 432.109375v78.742187c-2.914063.175782-5.828125.265626-8.828125.265626s-5.914063-.089844-8.828125-.265626v-78.742187c0-4.875 3.953125-8.828125 8.828125-8.828125s8.828125 3.953125 8.828125 8.828125zm0 0"/><path d="m511.117188 255.558594c0 3-.089844 5.914062-.265626 8.828125h-78.742187c-4.875 0-8.828125-3.953125-8.828125-8.828125s3.953125-8.828125 8.828125-8.828125h78.742187c.175782 2.914062.265626 5.828125.265626 8.828125zm0 0"/><path d="m87.835938 255.558594c0 4.875-3.953126 8.828125-8.828126 8.828125h-78.742187c-.1757812-2.914063-.265625-5.828125-.265625-8.828125s.0898438-5.914063.265625-8.828125h78.742187c4.875 0 8.828126 3.953125 8.828126 8.828125zm0 0"/><path d="m442.351562 81.214844-55.703124 55.699218c-1.648438 1.691407-3.90625 2.648438-6.269532 2.648438-3.546875-.054688-6.722656-2.222656-8.066406-5.507812-1.34375-3.285157-.601562-7.054688 1.890625-9.585938l55.699219-55.703125c4.328125 3.972656 8.476562 8.121094 12.449218 12.449219zm0 0"/><path d="m136.914062 386.648438-9.179687 9.179687-46.519531 46.523437c-4.328125-3.972656-8.476563-8.121093-12.449219-12.449218l46.523437-46.519532 9.179688-9.179687c2.15625-2.519531 5.546875-3.617187 8.769531-2.84375 3.226563.777344 5.742188 3.292969 6.519531 6.519531.773438 3.222656-.324218 6.613282-2.84375 8.769532zm0 0"/><path d="m442.351562 429.902344c-3.972656 4.328125-8.121093 8.476562-12.449218 12.449218l-46.519532-46.523437-9.179687-9.179687c-2.519531-2.15625-3.617187-5.546876-2.84375-8.769532.777344-3.226562 3.292969-5.742187 6.519531-6.519531 3.222656-.773437 6.613282.324219 8.769532 2.84375l9.179687 9.179687zm0 0"/><path d="m136.914062 136.914062c-1.609374 1.691407-3.84375 2.648438-6.175781 2.648438-2.363281 0-4.621093-.957031-6.269531-2.648438l-55.703125-55.699218c3.972656-4.328125 8.121094-8.476563 12.449219-12.449219l55.699218 55.703125c1.695313 1.628906 2.652344 3.875 2.652344 6.222656s-.957031 4.597656-2.652344 6.222656zm0 0"/><path d="m361.488281 22.953125-25.15625 60.820313-5.03125 12.09375c-1.394531 3.292968-4.636719 5.417968-8.210937 5.386718-1.148438 0-2.285156-.210937-3.355469-.621094-2.167969-.894531-3.890625-2.621093-4.785156-4.789062-.894531-2.171875-.886719-4.609375.019531-6.773438l4.941406-12.003906 25.25-60.910156c5.558594 2.027344 10.945313 4.324219 16.328125 6.796875zm0 0"/><path d="m196.148438 422.046875-5.03125 12.09375-25.160157 60.820313c-5.558593-2.027344-10.945312-4.324219-16.328125-6.796876l25.15625-60.820312 5.03125-12.09375c1.214844-2.917969 3.894532-4.964844 7.027344-5.371094 3.132812-.410156 6.246094.886719 8.164062 3.398438 1.921876 2.507812 2.355469 5.851562 1.140626 8.769531zm0 0"/><path d="m494.960938 345.160156c-2.027344 5.558594-4.324219 10.945313-6.796876 16.328125l-60.730468-25.15625-12.183594-5.03125c-4.511719-1.878906-6.644531-7.054687-4.765625-11.566406 1.875-4.507813 7.054687-6.644531 11.5625-4.765625l12.09375 5.03125zm0 0"/><path d="m100.632812 191.382812c-1.40625 3.292969-4.628906 5.441407-8.207031 5.472657-1.152343-.023438-2.292969-.261719-3.355469-.707031l-12.003906-4.941407-60.910156-25.25c2.027344-5.558593 4.324219-10.945312 6.796875-16.328125l60.910156 25.246094 12.003907 4.941406c2.167968.898438 3.890624 2.625 4.785156 4.792969.894531 2.171875.886718 4.609375-.019532 6.773437zm0 0"/><path d="m494.960938 165.957031-60.820313 25.160157-12.09375 5.03125c-1.0625.453124-2.199219.691406-3.355469.707031-3.578125-.03125-6.800781-2.179688-8.207031-5.472657-.90625-2.164062-.914063-4.601562-.019531-6.773437.894531-2.167969 2.617187-3.894531 4.785156-4.792969l12.09375-5.03125 60.820312-25.15625c2.472657 5.382813 4.769532 10.769532 6.796876 16.328125zm0 0"/><path d="m95.867188 331.300781-12.09375 5.03125-60.820313 25.15625c-2.472656-5.382812-4.769531-10.769531-6.796875-16.328125l60.910156-25.25 12.003906-4.941406c2.917969-1.214844 6.261719-.78125 8.769532 1.140625 2.511718 1.917969 3.808594 5.03125 3.398437 8.164063-.40625 3.132812-2.453125 5.8125-5.371093 7.027343zm0 0"/><path d="m361.488281 488.164062c-5.382812 2.472657-10.769531 4.769532-16.328125 6.796876l-25.160156-60.820313-5.03125-12.09375c-1.214844-2.917969-.78125-6.261719 1.140625-8.769531 1.917969-2.511719 5.03125-3.808594 8.164063-3.398438 3.132812.40625 5.8125 2.453125 7.027343 5.371094l5.03125 12.183594zm0 0"/><path d="m191.382812 100.632812c-1.070312.410157-2.207031.621094-3.355468.621094-3.574219.03125-6.816406-2.09375-8.210938-5.386718l-4.941406-12.003907-25.246094-60.910156c5.382813-2.472656 10.769532-4.769531 16.328125-6.796875l25.25 60.910156 4.941407 12.003906c.90625 2.164063.914062 4.601563.019531 6.773438-.894531 2.167969-2.617188 3.894531-4.785157 4.789062zm0 0"/><path d="m221.394531 91.367188c-.582031.097656-1.171875.15625-1.765625.175781-4.195312 0-7.808594-2.953125-8.648437-7.0625l-2.648438-12.710938-13.417969-64.441406c5.648438-1.5 11.476563-2.648437 17.300782-3.621094l13.417968 64.441407 2.648438 12.710937c.996094 4.800781-2.085938 9.503906-6.886719 10.507813zm0 0"/><path d="m316.203125 503.789062c-5.648437 1.503907-11.476563 2.648438-17.300781 3.621094l-13.417969-64.355468-2.648437-12.796876c-.648438-3.09375.40625-6.292968 2.757812-8.398437 2.355469-2.105469 5.652344-2.792969 8.652344-1.808594s5.246094 3.496094 5.890625 6.585938l2.648437 12.800781zm0 0"/><path d="m507.410156 212.214844-64.355468 13.417968-12.796876 2.648438c-.613281.101562-1.234374.160156-1.855468.175781-4.179688-.039062-7.773438-2.972656-8.652344-7.0625-.46875-2.292969-.003906-4.679687 1.285156-6.632812 1.292969-1.953125 3.308594-3.316407 5.601563-3.78125l12.800781-2.648438 64.351562-13.417969c1.503907 5.648438 2.648438 11.476563 3.621094 17.300782zm0 0"/><path d="m84.480469 300.136719-12.710938 2.648437-64.441406 13.417969c-1.5-5.648437-2.648437-11.476563-3.621094-17.300781l64.441407-13.417969 12.800781-2.648437c3.089843-.628907 6.28125.433593 8.375 2.796874 2.089843 2.359376 2.765625 5.660157 1.765625 8.652344-1 2.992188-3.519532 5.222656-6.609375 5.851563zm0 0"/><path d="m402.980469 46.785156-36.195313 55.171875-7.0625 10.769531c-1.613281 2.523438-4.421875 4.023438-7.414062 3.972657-3.222656 0-6.1875-1.769531-7.71875-4.609375s-1.378906-6.289063.390625-8.984375l7.152343-10.855469 36.105469-55.175781c5.03125 3.089843 9.972657 6.359375 14.742188 9.710937zm0 0"/><path d="m166.136719 408.011719-7.152344 10.945312-36.105469 55.085938c-5.03125-3.089844-9.972656-6.359375-14.742187-9.710938l36.105469-55.085937 7.152343-10.855469c1.59375-2.90625 4.683594-4.671875 7.996094-4.574219s6.289063 2.039063 7.710937 5.035156c1.425782 2.992188 1.050782 6.53125-.964843 9.160157zm0 0"/><path d="m474.042969 388.238281c-3.089844 5.03125-6.359375 9.972657-9.710938 14.742188l-55.085937-36.105469-10.855469-7.152344c-2.90625-1.59375-4.671875-4.683594-4.574219-7.996094s2.039063-6.289062 5.035156-7.710937c2.992188-1.425781 6.53125-1.050781 9.160157.964844l10.945312 7.152343zm0 0"/><path d="m115.289062 163.574219c-1.617187 2.519531-4.421874 4.023437-7.414062 3.972656-1.695312-.003906-3.347656-.492187-4.769531-1.410156l-10.855469-7.152344-55.175781-36.105469c3.089843-5.03125 6.359375-9.972656 9.710937-14.742187l55.085938 36.195312 10.855468 7.0625c4.058594 2.664063 5.203126 8.105469 2.5625 12.179688zm0 0"/><path d="m311.878906 6.269531-12.269531 64.703125-2.472656 12.800782c-.800781 4.144531-4.429688 7.144531-8.652344 7.152343-.5625-.019531-1.121094-.082031-1.675781-.179687-4.773438-.933594-7.890625-5.550782-6.972656-10.328125l2.382812-12.710938 12.359375-64.792969c5.824219.96875 11.5625 2.03125 17.300781 3.355469zm0 0"/><path d="m231.28125 430.699219-2.46875 12.796875-12.273438 64.707031c-5.824218-.96875-11.5625-2.03125-17.300781-3.351563l12.269531-64.621093 2.472657-12.886719c1.160156-4.527344 5.644531-7.367188 10.230469-6.476562 4.589843.890624 7.6875 5.199218 7.070312 9.832031zm0 0"/><path d="m508.203125 294.578125c-.96875 5.824219-2.03125 11.5625-3.351563 17.300781l-64.621093-12.269531-12.886719-2.472656c-4.527344-1.160157-7.367188-5.644531-6.476562-10.230469.890624-4.589844 5.199218-7.6875 9.832031-7.070312l12.796875 2.46875zm0 0"/><path d="m90.746094 224.308594c-.800782 4.144531-4.425782 7.144531-8.648438 7.152344-.5625-.019532-1.125-.082032-1.679687-.179688l-12.710938-2.382812-64.792969-12.359376c.96875-5.824218 2.03125-11.5625 3.355469-17.300781l64.703125 12.359375 12.800782 2.382813c2.304687.425781 4.34375 1.757812 5.65625 3.699219 1.308593 1.945312 1.785156 4.332031 1.316406 6.628906zm0 0"/><path d="m471.65625 119.085938-54.464844 37.074218-10.769531 7.328125c-1.449219 1.007813-3.179687 1.535157-4.941406 1.5-3.835938-.046875-7.203125-2.566406-8.332031-6.230469-1.125-3.667968.242187-7.640624 3.386718-9.835937l10.679688-7.328125 54.46875-37.074219c3.53125 4.675781 6.796875 9.53125 9.972656 14.566407zm0 0"/><path d="m114.582031 362.195312-10.769531 7.328126-54.378906 37.074218c-3.53125-4.675781-6.796875-9.53125-9.972656-14.566406l54.464843-37.074219 10.769531-7.328125c4.003907-2.292968 9.101563-1.117187 11.691407 2.703125 2.59375 3.820313 1.804687 8.988281-1.804688 11.863281zm0 0"/><path d="m406.597656 461.683594c-4.675781 3.53125-9.53125 6.796875-14.566406 9.972656l-37.074219-54.375-7.328125-10.859375c-2.292968-4.003906-1.117187-9.101563 2.703125-11.691406 3.820313-2.59375 8.988281-1.804688 11.863281 1.804687l7.328126 10.769532zm0 0"/><path d="m161.191406 116.878906c-1.921875 1.351563-4.308594 1.871094-6.617187 1.441406-2.3125-.433593-4.351563-1.78125-5.652344-3.738281l-7.328125-10.679687-37.074219-54.46875c4.675781-3.53125 9.53125-6.796875 14.566407-9.972656l37.074218 54.554687 7.328125 10.679687c2.691407 4.003907 1.671875 9.433594-2.296875 12.183594zm0 0"/></g><path d="m255.558594 445.429688c-104.847656.007812-189.847656-84.984376-189.855469-189.828126-.007813-104.847656 84.980469-189.851562 189.824219-189.863281 104.847656-.011719 189.855468 84.972657 189.867187 189.820313-.101562 104.808594-85.027343 189.75-189.835937 189.871094zm0 0" fill="#e6e7e8"/><path d="m361.226562 280.980469c-3.753906 12.101562-9.941406 23.308593-18.1875 32.929687-14.828124 16.769532-7.0625 31.601563-15.625 38.222656-6.882812 5.207032-32.835937-3.089843-43.34375-6.710937-.996093-.367187-2.113281-.21875-2.980468.402344-.863282.617187-1.367188 1.625-1.34375 2.6875v22.246093c0 1 .453125 1.941407 1.234375 2.5625 6.710937 5.117188 32.75 25.421876 35.664062 50.84375 3.355469 28.515626-54.023437-28.421874-78.742187-35.484374-24.714844-7.238282-55.4375 5.824218-54.90625-2.121094.53125-7.765625 20.304687.972656 22.511718-24.273438 1.167969-14.953125 1.195313-29.976562.085938-44.933594l-.085938-.089843c4.671876-3.414063 9.070313-7.195313 13.152344-11.296875 8.734375-8.054688 15.578125-17.941406 20.039063-28.957032-18.007813 2.03125-15.273438-19.773437-12.976563-30.453124 55.257813 10.859374 47.933594-18.539063 44.753906-27.453126 26.660157-1.679687 33.191407-15.097656 33.632813-26.75h1.058594c10.226562 1.507813 20.648437.90625 30.632812-1.765624v.089843c-1.675781 17.742188-2.648437 59.851563 23.304688 83.332031 2.035156 1.695313 2.867187 4.433594 2.121093 6.972657zm0 0" fill="#bdc3c7"/><path d="m335.800781 190.585938c-4.523437 1.421874-9.210937 2.253906-13.945312 2.472656-5.574219.3125-11.160157.074218-16.6875-.707032h-1.058594c-.441406 11.476563-6.796875 24.628907-32.484375 26.660157-.351562 0-.707031.089843-1.148438.089843 2.269532 5.574219 2.703126 11.726563 1.238282 17.566407-3.003906 9.003906-14.039063 16.152343-45.992188 9.886719-1.390625 5.804687-1.894531 11.785156-1.503906 17.742187.882812 7.59375 4.414062 13.859375 14.480469 12.710937-4.460938 11.015626-11.304688 20.902344-20.039063 28.957032-4.082031 4.101562-8.480468 7.882812-13.152344 11.296875-34.605468 25.160156-36.28125-16.59375-36.28125-16.59375-41.578124-12.007813-8.210937-38.753907-8.210937-38.753907-29.660156-24.277343 5.382813-49.789062 5.382813-49.789062 76.714843-57.996094 134.621093-77.417969 134.621093-77.417969s45.726563-4.148437 50.671875 30.898438c1.273438 5.425781.304688 11.132812-2.6875 15.835937-2.992187 4.699219-7.75 8-13.203125 9.144532zm0 0" fill="#cacfd2"/><path d="m166.398438 212.066406-40.605469-42.761718-2.648438-2.023438c11.988281 2.375 46.378907 3.671875 33.925781-35.601562 4.75 4.8125 19.507813 18.054687 30.832032 8.503906 8.105468-6.789063 8.996094-22.792969 6.488281-33.46875 8.695313 8.757812 24.347656 17.65625 33.050781 10.9375 8.4375-7.738282 13.140625-18.734375 12.90625-30.179688 4.617188 6.390625 13.117188 15.554688 23.332032 13.179688 11.476562-2.648438 18.308593-17.789063 20.09375-25.105469l17.257812 59.144531zm0 0" fill="#bdc3c7"/></svg>